<svg xmlns="http://www.w3.org/2000/svg">
<symbol id="cancel" viewBox="0 0 19 19" fill="currentColor">     <path fill="currentColor" fill-rule="evenodd" d="M18.997 17.455l-1.542 1.543-7.957-7.956-7.956 7.956-1.543-1.543 7.956-7.956-7.956-7.955L1.542.001l7.956 7.956L17.455.001l1.542 1.543-7.956 7.955 7.956 7.956z"/> </symbol>
<symbol id="edit" viewBox="0 0 153 211" fill="currentColor">     <path fill="currentColor" fill-rule="evenodd" d="M149.001 55.894l-18.202 27.797-48.633 74.269-.001-.002-8.353 12.757-61.579 32.691-12.244 6.61.727-14.066s2.3-54.845 3.997-69.957L79.899 11.17c7.454-11.383 22.779-14.603 34.228-7.188l27.64 17.885c11.448 7.412 14.688 22.642 7.234 34.027zm-15.748-26.466l-22.632-14.646c-9.016-5.84-21.083-3.304-26.953 5.663l-5.07 7.743 6.909 4.472-58.621 89.518-6.909-4.471-7.055 10.772c-1.335 11.898-3.147 48.491-3.147 48.491l12.764 8.81 45.669-21.518 7.054-10.773-6.915-4.478 58.62-89.52 6.917 4.477 5.07-7.744c5.867-8.964 3.316-20.96-5.701-26.796zM40.705 131.126L99.328 41.6l13.82 8.948-58.621 89.524-13.822-8.946z"/> </symbol>
<symbol id="email" viewBox="0 0 27 18" fill="currentColor">     <path fill="currentColor" fill-rule="evenodd" d="M18.372 8.106l7.649-6.072v15.367l-7.649-9.295zM1.068.852H25.96l-12.446 9.877L1.068.852zM.973 17.441l.02-15.417 7.664 6.082-7.684 9.335zm12.538-5.483v.004l.003-.002.004.002v-.004l4.241-3.366 7.334 8.911H1.935l7.334-8.911 4.242 3.366z"/> </symbol>
<symbol id="eye" viewBox="0 0 30 19" fill="currentColor">     <path fill="currentColor" fill-rule="evenodd" d="M15 18.797C6.726 18.797.018 9.5.018 9.5S6.726.203 15 .203 29.981 9.5 29.981 9.5 23.274 18.797 15 18.797zm.011-17.042c-6.919 0-12.527 7.61-12.527 7.61s5.608 7.611 12.527 7.611 12.528-7.611 12.528-7.611-5.609-7.61-12.528-7.61zm-.026 12.562c-3.431 0-6.213-2.781-6.213-6.213 0-3.431 2.782-6.213 6.213-6.213 1.406 0 2.699.473 3.741 1.261-.353-.123-.725-.203-1.119-.203-1.886 0-3.415 1.529-3.415 3.415 0 1.886 1.529 3.415 3.415 3.415 1.814 0 3.282-1.418 3.393-3.204.125.49.198 1 .198 1.529 0 3.432-2.782 6.213-6.213 6.213z"/> </symbol>
<symbol id="home" viewBox="0 0 17 17" fill="currentColor">     <path fill="currentColor" fill-rule="evenodd" d="M13.612 16.997H9.65c-.345 0-.624-.28-.624-.627v-3.48c0-.637.106-1.155-.528-1.155-.638 0-.404.518-.404 1.155v3.48c0 .347-.28.627-.625.627H3.507c-.346 0-.625-.28-.625-.627V9.306H.618c-.252 0-.479-.151-.576-.383-.099-.233-.046-.502.13-.681L8.051.176c.235-.241.657-.241.894 0l7.877 8.066c.176.179.229.448.13.681-.098.232-.324.383-.576.383h-2.139v7.064c0 .347-.28.627-.625.627zm-3.336-1.253h2.711V8.68c0-.347.279-.627.625-.627h1.277L8.498 1.511 2.107 8.053h1.4c.346 0 .626.28.626.627v7.064h2.711V12.89c0-1.329.328-2.409 1.654-2.409 1.325 0 1.778 1.08 1.778 2.409v2.854z"/> </symbol>
<symbol id="login" viewBox="0 0 30 30" fill="currentColor">     <path fill="currentColor" fill-rule="evenodd" d="M15.822 15.996v4.359l-6.18-5.356 6.18-5.358v4.36h9.89v1.995h-9.89zM19.843 3c0-.552-.448-1-.999-1H2.999c-.552 0-1 .448-1 1v24c0 .552.448 1 1 1h15.845c.551 0 .999-.448.999-1v-8h1.937v8c0 1.657-1.343 3-2.999 3H2.999c-1.656 0-3-1.343-3-3V3c0-1.657 1.344-3 3-3h15.782c1.656 0 2.999 1.343 2.999 3v8.031h-1.937V3z"/> </symbol>
<symbol id="logout" viewBox="0 0 30 30" fill="currentColor">     <path fill="currentColor" fill-rule="evenodd" d="M30.355 14.999l-6.18 5.356v-4.359h-9.89v-1.995h9.89v-4.36l6.18 5.358zM20.031 3c0-.552-.448-1-1-1H2.999c-.552 0-1 .448-1 1v24c0 .552.448 1 1 1h16.032c.552 0 1-.448 1-1v-8h1.937v8c0 1.657-1.343 3-3 3H2.999c-1.656 0-3-1.343-3-3V3c0-1.657 1.344-3 3-3h15.969c1.657 0 3 1.343 3 3v8.031h-1.937V3z"/> </symbol>
<symbol id="play" viewBox="0 0 21 23" fill="currentColor">     <path fill="currentColor" fill-rule="evenodd" d="M19.375 10.143c1.333.77 1.333 2.694 0 3.464L3.625 22.7c-1.333.77-3-.192-3-1.732V2.782c0-1.54 1.667-2.502 3-1.732l15.75 9.093z"/> </symbol>
<symbol id="plus" viewBox="0 0 16 16" fill="currentColor">     <path fill="currentColor" fill-rule="evenodd" d="M15 9H9v6c0 .552-.448 1-1 1s-1-.448-1-1V9H1c-.552 0-1-.448-1-1s.448-1 1-1h6V1c0-.552.448-1 1-1s1 .448 1 1v6h6c.552 0 1 .448 1 1s-.448 1-1 1z"/> </symbol>
<symbol id="search" viewBox="0 0 16 15" fill="currentColor">     <path fill="currentColor" fill-rule="evenodd" d="M2.224 10.22c1.976 2.699 5.671 3.431 8.518 1.791l2.576 2.495c.583.623 1.561.664 2.186.092.625-.573.661-1.542.078-2.165l-2.619-2.537c1.389-2.165 1.394-5.037-.218-7.239-2.108-2.879-6.171-3.52-9.076-1.431C.764 3.314.117 7.341 2.224 10.22zm1.935-8.171C6.638.267 10.106.814 11.905 3.271c1.799 2.457 1.246 5.893-1.233 7.676-2.479 1.782-5.946 1.235-7.745-1.222-1.799-2.457-1.246-5.893 1.232-7.676z"/> </symbol>
<symbol id="tick-alt" viewBox="0 0 17 13" fill="currentColor">     <path fill="currentColor" fill-rule="evenodd" d="M16.353 1.354L6.206 11.5l.147.146-.707.708-.147-.147-.147.147-.707-.708.147-.146L.646 7.354l.707-.707 4.146 4.146L15.645.647l.708.707z"/> </symbol>
<symbol id="tick" viewBox="0 0 18 16" fill="currentColor">     <path fill="currentColor" fill-rule="evenodd" d="M2.672 15.314S.085 10.469-.002 7.612C-.024 6.701.107 6.514.5 6.225c.397-.29 1.207-.063 1.446.124.244.186 2.107 3.923 2.107 3.923S10.934 2.56 15.34.531c.219-.104.328-.187.854-.394 1.097-.372 1.426.124 1.426.124l.285.311s.35.87-.308 1.263c-.306.207-3.944 2.609-7.036 6.274-3.769 4.224-5.74 7.371-5.74 7.371s-.397.518-1.12.518c-.723 0-1.029-.684-1.029-.684z"/> </symbol>
<symbol id="trash" viewBox="0 0 13 15" fill="currentColor">     <path fill="currentColor" fill-rule="evenodd" d="M8.008 6.038h1.001v5.971H8.008V6.038zm-1.964 0h.951v5.971h-.951V6.038zm-2.037 0h.966v5.971h-.966V6.038zm-2.018-2.03l.001 9.255c0 .758.813.882.813.882h7.417s.796.027.796-.882c0-.91.014-9.255.014-9.255H1.989zM5.982.914c-.779.014-.975 1.278-1.011 2.034l-.002.074h3.065l-.002-.074C7.996 2.192 7.879.776 6.974.914h-.992zm0-.91h.992c1.23.055 2.008 1.33 1.955 2.87l.003.148h3.303c.369 0 .668.114.668.51 0 .397-.248.476-.618.476h-.432l-.002 9.42c0 .854-.447 1.571-1.474 1.571H2.679c-.611 0-1.473-.249-1.473-1.571l.035-9.42H.786c-.371 0-.695-.079-.695-.476 0-.396.299-.51.669-.51H4.059l.003-.148c-.053-1.458.691-2.952 1.92-2.87z"/> </symbol>
<symbol id="arrow-down" viewBox="0 0 10 10" fill="currentColor">     <path fill="currentColor" fill-rule="evenodd" d="M4.467 6.766l3.235-3.235.874.875-4.109 4.11-4.11-4.11.875-.875 3.235 3.235z"/>     </symbol>
<symbol id="pause" viewBox="0 0 47.607 47.607" fill="currentColor">
	<path d="M17.991,40.976c0,3.662-2.969,6.631-6.631,6.631l0,0c-3.662,0-6.631-2.969-6.631-6.631V6.631C4.729,2.969,7.698,0,11.36,0   l0,0c3.662,0,6.631,2.969,6.631,6.631V40.976z"/>
	<path d="M42.877,40.976c0,3.662-2.969,6.631-6.631,6.631l0,0c-3.662,0-6.631-2.969-6.631-6.631V6.631   C29.616,2.969,32.585,0,36.246,0l0,0c3.662,0,6.631,2.969,6.631,6.631V40.976z"/>
</symbol>
<symbol id="database" viewBox="0 0 29.26 29.26" fill="currentColor">
	<path d="M14.627,15.954c-5.494,0-10.098-1.614-11.355-3.79c-0.221,0.383-0.35,0.781-0.35,1.194v3.561   c0,2.751,5.242,4.983,11.705,4.983c6.467,0,11.711-2.232,11.711-4.983v-3.561c0-0.413-0.131-0.811-0.354-1.194   C24.727,14.339,20.127,15.954,14.627,15.954z"/>
	<path d="M14.627,23.31c-5.494,0-10.098-1.616-11.355-3.788c-0.221,0.381-0.35,0.779-0.35,1.191v3.564   c0,2.752,5.242,4.983,11.705,4.983c6.467,0,11.711-2.23,11.711-4.983v-3.564c0-0.412-0.131-0.81-0.354-1.19   C24.727,21.694,20.127,23.31,14.627,23.31z"/>
	<path d="M26.018,5.042c-0.23,2.016-5.232,3.629-11.391,3.629c-6.156,0-11.158-1.613-11.387-3.628   C3.039,5.409,2.922,5.791,2.922,6.184v3.561c0,2.752,5.242,4.983,11.705,4.983c6.467,0,11.711-2.23,11.711-4.983V6.184   C26.338,5.791,26.219,5.409,26.018,5.042z"/>
	<path d="M14.627,7.541c6.303,0,11.41-1.687,11.41-3.771c0-2.082-5.107-3.77-11.41-3.77   C8.328,0.001,3.219,1.689,3.219,3.771C3.219,5.854,8.328,7.541,14.627,7.541z"/>
</symbol>
<symbol id="tic-tac-toe" viewBox="0 0 512 512" fill="currentColor">
	<path d="M151.129,388.83L207,332.959c4.404-4.403,6.829-10.258,6.829-16.485s-2.425-12.081-6.828-16.485    c-9.09-9.088-23.88-9.087-32.97,0l-55.872,55.872l-55.872-55.872c-9.091-9.09-23.88-9.088-32.97,0.001    c-4.403,4.403-6.828,10.258-6.828,16.484c0,6.228,2.425,12.082,6.828,16.485l55.872,55.871l-55.872,55.872    c-4.403,4.403-6.828,10.258-6.828,16.484c0,6.228,2.425,12.082,6.828,16.484c4.403,4.404,10.258,6.829,16.485,6.829    s12.082-2.425,16.485-6.828l55.872-55.872l55.872,55.872c4.403,4.403,10.258,6.828,16.485,6.828    c6.228,0,12.082-2.425,16.485-6.828c4.403-4.403,6.828-10.258,6.828-16.485s-2.425-12.081-6.828-16.484L151.129,388.83z     M196.394,467.066c-1.57,1.569-3.657,2.435-5.878,2.435c-2.22,0-4.308-0.865-5.878-2.436l-61.175-61.175    c-1.464-1.464-3.384-2.196-5.303-2.196s-3.839,0.732-5.303,2.196l-61.175,61.176c-1.57,1.569-3.657,2.435-5.878,2.435    c-2.221,0-4.308-0.865-5.878-2.436c-1.57-1.569-2.435-3.657-2.435-5.878c0-2.22,0.864-4.308,2.435-5.877l61.175-61.176    c2.929-2.93,2.929-7.678,0-10.607l-61.175-61.175c-1.57-1.569-2.435-3.657-2.435-5.878c0-2.221,0.865-4.309,2.435-5.878    c3.241-3.242,8.516-3.242,11.757,0l61.175,61.175c2.929,2.928,7.678,2.928,10.606,0l61.174-61.175    c3.242-3.24,8.516-3.241,11.757,0.001c1.57,1.569,2.435,3.657,2.435,5.877c-0.001,2.22-0.866,4.308-2.436,5.878l-61.175,61.175    c-2.929,2.93-2.929,7.678,0,10.607l61.175,61.176c1.57,1.569,2.435,3.657,2.435,5.877    C198.829,463.408,197.965,465.496,196.394,467.066z"/>
	<path d="M411.463,294.787c-4.071-0.759-7.989,1.927-8.747,5.999c-0.759,4.072,1.927,7.988,5.999,8.747    c38.125,7.104,65.796,40.453,65.796,79.297c0,44.482-36.188,80.672-80.671,80.672c-44.483,0-80.672-36.189-80.672-80.672    c0-38.083,27.025-71.307,64.261-78.999c4.057-0.838,6.665-4.806,5.827-8.862c-0.839-4.057-4.808-6.663-8.862-5.827    c-44.168,9.124-76.226,48.526-76.226,93.688c0,52.754,42.918,95.672,95.672,95.672c52.753,0,95.671-42.918,95.671-95.672    C489.511,342.765,456.687,303.214,411.463,294.787z"/>
	<path d="M393.84,321.111c-37.341,0-67.72,30.379-67.72,67.719c0,37.341,30.379,67.72,67.72,67.72s67.72-30.379,67.72-67.72    C461.56,351.49,431.181,321.111,393.84,321.111z M393.84,441.55c-29.07,0-52.72-23.65-52.72-52.72s23.651-52.719,52.72-52.719    c29.069,0,52.72,23.649,52.72,52.719S422.91,441.55,393.84,441.55z"/>
	<path d="M426.809,123.17l55.871-55.872c4.404-4.403,6.829-10.258,6.829-16.485c0-6.227-2.425-12.081-6.829-16.485    c-9.09-9.088-23.88-9.088-32.97,0L393.841,90.2l-55.872-55.873c-9.089-9.087-23.88-9.089-32.969,0.001    c-4.404,4.403-6.829,10.258-6.829,16.485s2.425,12.081,6.828,16.484l55.872,55.872L305,179.041    c-4.404,4.403-6.829,10.258-6.829,16.485s2.425,12.081,6.828,16.484c4.404,4.403,10.259,6.828,16.485,6.828    s12.081-2.425,16.484-6.828l14.869-14.868c2.93-2.929,2.93-7.678,0.001-10.606c-2.929-2.928-7.678-2.93-10.606-0.001    l-14.87,14.868c-1.57,1.57-3.657,2.436-5.878,2.436c-2.221,0-4.308-0.865-5.879-2.436c-1.57-1.569-2.435-3.657-2.435-5.877    c0-2.221,0.864-4.309,2.436-5.878l61.175-61.175c2.929-2.93,2.929-7.678,0-10.607L315.605,56.69    c-1.57-1.569-2.435-3.657-2.435-5.878s0.865-4.308,2.435-5.878c3.242-3.242,8.517-3.24,11.757,0l61.175,61.176    c1.407,1.406,3.314,2.196,5.304,2.196s3.896-0.79,5.304-2.196l61.174-61.176c3.242-3.24,8.516-3.241,11.758,0.001    c1.57,1.569,2.435,3.657,2.435,5.878c0,2.22-0.864,4.308-2.436,5.877L410.9,117.866c-2.929,2.93-2.929,7.678,0,10.607    l61.176,61.175c1.57,1.569,2.435,3.657,2.435,5.878c0,2.22-0.864,4.308-2.436,5.877c-1.57,1.57-3.657,2.436-5.878,2.436    c-2.221,0-4.308-0.865-5.878-2.436l-61.175-61.174c-2.929-2.927-7.678-2.929-10.606,0l-22.14,22.139    c-2.93,2.929-2.93,7.678-0.001,10.606c2.929,2.928,7.678,2.93,10.606,0.001l16.837-16.836l55.871,55.871    c4.404,4.403,10.259,6.828,16.485,6.828c6.226,0,12.081-2.425,16.484-6.828c4.404-4.403,6.829-10.258,6.829-16.484    c0-6.228-2.425-12.082-6.828-16.485L426.809,123.17z"/>
	<path d="M118.16,27.497c-52.753,0-95.67,42.919-95.67,95.673c0,52.753,42.918,95.67,95.671,95.67    c18.788,0,36.982-5.451,52.616-15.765c3.458-2.281,4.412-6.934,2.13-10.391c-2.281-3.458-6.935-4.412-10.39-2.131    c-13.175,8.692-28.514,13.286-44.356,13.286c-44.482,0-80.671-36.188-80.671-80.67s36.189-80.672,80.671-80.672    s80.671,36.189,80.671,80.672c0,16.311-4.846,32.024-14.014,45.442c-2.337,3.421-1.459,8.087,1.961,10.424    c3.418,2.337,8.086,1.457,10.423-1.961c10.879-15.922,16.629-34.563,16.629-53.905C213.831,70.415,170.913,27.497,118.16,27.497z"/>
	<path d="M118.161,55.45c-37.341,0-67.72,30.379-67.72,67.72c0,37.34,30.379,67.719,67.72,67.719s67.72-30.379,67.72-67.719    C185.88,85.829,155.501,55.45,118.161,55.45z M118.161,175.889c-29.07,0-52.72-23.649-52.72-52.719s23.65-52.72,52.72-52.72    s52.72,23.65,52.72,52.72S147.23,175.889,118.161,175.889z"/>
	<path d="M504.5,248.5h-241V7.5c0-4.143-3.357-7.5-7.5-7.5c-4.142,0-7.5,3.357-7.5,7.5v241H7.5c-4.142,0-7.5,3.357-7.5,7.5    s3.358,7.5,7.5,7.5h241v241c0,4.143,3.358,7.5,7.5,7.5c4.143,0,7.5-3.357,7.5-7.5v-241h241c4.143,0,7.5-3.357,7.5-7.5    S508.643,248.5,504.5,248.5z"/>
	<path d="M285.308,276.705c-4.143,0-7.5,3.357-7.5,7.5v0.938c0,4.143,3.357,7.5,7.5,7.5s7.5-3.357,7.5-7.5v-0.938    C292.808,280.063,289.45,276.705,285.308,276.705z"/>
	<path d="M226.692,276.705c-4.142,0-7.5,3.357-7.5,7.5v0.938c0,4.143,3.358,7.5,7.5,7.5c4.142,0,7.5-3.357,7.5-7.5v-0.938    C234.192,280.063,230.834,276.705,226.692,276.705z"/>
	<path d="M285.308,219.357c-4.143,0-7.5,3.357-7.5,7.5v0.938c0,4.143,3.357,7.5,7.5,7.5s7.5-3.357,7.5-7.5v-0.938    C292.808,222.714,289.451,219.357,285.308,219.357z"/>
	<path d="M226.692,219.357c-4.142,0-7.5,3.357-7.5,7.5v0.938c0,4.143,3.358,7.5,7.5,7.5c4.142,0,7.5-3.357,7.5-7.5v-0.938    C234.192,222.714,230.834,219.357,226.692,219.357z"/>
</symbol>
<symbol id="loading" viewBox="0 0 399.389 399.389" fill="currentColor">
	<path d="M340.896,58.489C303.18,20.773,253.031,0.001,199.693,0.001c-53.34,0-103.487,20.771-141.204,58.488   C20.772,96.207,0,146.355,0,199.694c0,53.34,20.772,103.489,58.49,141.206c37.717,37.717,87.864,58.488,141.204,58.488   c53.339,0,103.486-20.771,141.205-58.488c37.717-37.717,58.49-87.865,58.49-141.206C399.387,146.355,378.613,96.207,340.896,58.489   z M328.061,71.326c34.289,34.289,53.172,79.878,53.172,128.368h-41.148c0-77.412-62.979-140.391-140.391-140.391   c-4.593,0-9.134,0.229-13.615,0.662v-41.31c4.508-0.332,9.049-0.5,13.615-0.5C248.184,18.155,293.771,37.038,328.061,71.326z    M199.693,321.931c-67.401,0-122.236-54.835-122.236-122.236S132.292,77.458,199.693,77.458S321.93,132.293,321.93,199.694   S267.094,321.931,199.693,321.931z"/>
</symbol>
<symbol id="circle" viewBox="0 0 512 512" fill="currentColor">
	<path d="M256,0C115.03,0,0,115.05,0,256c0,140.97,115.05,256,256,256c140.97,0,256-115.05,256-256C512,115.03,396.95,0,256,0z     M256,482C131.383,482,30,380.617,30,256S131.383,30,256,30s226,101.383,226,226S380.617,482,256,482z"/>
</symbol>
<symbol id="win" viewBox="0 0 512 512" fill="currentColor">
	<path d="m452.42 210.226c10.146-15.543 8.272-35.766-4.557-49.18-5.654-5.912-8.017-14.218-6.323-22.22 3.847-18.159-5.206-36.34-22.015-44.213-7.408-3.47-12.612-10.362-13.923-18.436-2.973-18.322-17.983-32.005-36.5-33.275-8.161-.56-15.504-5.106-19.643-12.162-9.392-16.009-28.326-23.346-46.056-17.842-7.812 2.426-16.3.838-22.709-4.245-14.541-11.536-34.85-11.536-49.39 0-6.408 5.085-14.898 6.671-22.709 4.245-17.726-5.505-36.665 1.832-46.056 17.842-4.139 7.056-11.481 11.602-19.642 12.162-18.518 1.27-33.527 14.954-36.501 33.275-1.31 8.074-6.515 14.966-13.922 18.436-16.808 7.874-25.861 26.055-22.016 44.213 1.695 8.002-.669 16.309-6.322 22.221-12.828 13.414-14.703 33.638-4.557 49.181 4.471 6.849 5.268 15.449 2.131 23.004-7.117 17.142-1.558 36.677 13.516 47.505 6.644 4.773 10.493 12.504 10.297 20.681-.443 18.555 11.797 34.763 29.765 39.415 5.304 1.373 9.912 4.442 13.214 8.628l-41.324 99.763c-5.791 13.981 7.316 28.378 21.769 23.941l45.242-13.884c1.322-.403 2.748.188 3.395 1.407l22.173 41.808c7.093 13.374 26.538 12.43 32.322-1.535l43.071-103.981c.565-.019 1.13-.019 1.695 0l43.071 103.981c5.795 13.987 25.239 14.89 32.323 1.536l22.173-41.809c.646-1.22 2.073-1.811 3.395-1.406l45.241 13.884c14.461 4.439 27.558-9.968 21.77-23.941l-41.325-99.763c3.302-4.186 7.91-7.255 13.214-8.628 17.968-4.651 30.207-20.859 29.765-39.415-.196-8.177 3.654-15.908 10.298-20.68 15.075-10.829 20.632-30.364 13.515-47.506-3.132-7.558-2.335-16.158 2.135-23.007zm-254.196 284.993c-.941 2.272-4.067 2.411-5.214.248l-22.173-41.808c-4.011-7.563-12.862-11.227-21.045-8.717l-45.242 13.884c-2.347.718-4.452-1.594-3.512-3.863l36.662-88.513c8.272 11.331 22.1 17.646 36.657 15.946 8.124-.947 16.177 2.171 21.542 8.345 7.783 8.96 18.75 13.716 29.939 13.715 3.539 0 7.099-.495 10.589-1.464zm209.227-36.394-45.241-13.884c-8.183-2.51-17.036 1.155-21.046 8.717l-22.173 41.808c-1.145 2.161-4.275 2.021-5.215-.248l-38.195-92.209c14.519 4.03 30.278-.48 40.521-12.27 5.364-6.175 13.414-9.295 21.542-8.345 14.571 1.703 28.39-4.614 36.657-15.945l36.664 88.51c.942 2.278-1.175 4.581-3.514 3.866zm32.41-256.797c-7.182 11.003-8.462 24.817-3.424 36.953 4.43 10.671.971 22.831-8.414 29.573-10.672 7.666-16.856 20.085-16.542 33.22.276 11.552-7.344 21.642-18.53 24.537-10.463 2.709-19.249 9.519-24.518 18.728-.014.027-.029.053-.043.079-1.117 1.963-2.085 4.029-2.864 6.194-3.915 10.871-14.658 17.533-26.141 16.187-13.049-1.526-25.988 3.487-34.605 13.406-7.577 8.722-20.006 11.045-30.224 5.65-3.475-1.836-7.155-3.11-10.913-3.847-.031-.007-.062-.014-.093-.02-4.992-.967-10.122-.966-15.114.004-.018.004-.035.008-.053.011-3.767.737-7.454 2.013-10.937 3.852-10.218 5.396-22.646 3.072-30.223-5.65-7.598-8.745-18.551-13.675-29.982-13.675-1.534 0-3.079.089-4.624.27-11.472 1.343-22.227-5.315-26.142-16.187-.779-2.163-1.745-4.226-2.861-6.188-.017-.032-.034-.062-.051-.094-5.27-9.205-14.053-16.012-24.513-18.72-11.186-2.896-18.805-12.985-18.529-24.536.314-13.136-5.87-25.554-16.542-33.221-9.384-6.741-12.845-18.902-8.414-29.574 5.038-12.136 3.758-25.95-3.424-36.953-6.315-9.675-5.149-22.265 2.838-30.615 9.081-9.496 12.878-22.84 10.156-35.694-2.394-11.304 3.242-22.622 13.705-27.524 11.899-5.574 20.259-16.645 22.365-29.615 1.851-11.406 11.195-19.924 22.722-20.714 13.109-.899 24.905-8.202 31.553-19.537 5.847-9.966 17.639-14.532 28.67-11.106 12.549 3.897 26.186 1.348 36.48-6.819 9.05-7.182 21.694-7.182 30.747 0 10.293 8.166 23.928 10.717 36.479 6.819 11.035-3.427 22.825 1.141 28.67 11.106 6.648 11.334 18.444 18.637 31.553 19.537 11.527.791 20.871 9.309 22.722 20.714 2.106 12.97 10.467 24.041 22.365 29.616 10.464 4.901 16.099 16.219 13.705 27.523-2.722 12.854 1.074 26.198 10.156 35.694 7.983 8.35 9.149 20.94 2.834 30.616z"/><path d="m113.951 192.129c4.107.505 7.854-2.417 8.359-6.527 8.282-67.315 65.757-118.076 133.69-118.076 67.966 0 125.443 50.788 133.698 118.139.466 3.801 3.7 6.588 7.434 6.588.305 0 .612-.019.922-.057 4.111-.504 7.035-4.245 6.532-8.356-9.176-74.861-73.054-131.313-148.586-131.313-75.497 0-139.371 56.422-148.577 131.243-.505 4.111 2.417 7.853 6.528 8.359z"/><path d="m398.055 212.26c-4.099-.5-7.852 2.421-8.356 6.532-8.252 67.354-65.73 118.145-133.699 118.145-67.938 0-125.413-50.766-133.692-118.086-.505-4.11-4.245-7.031-8.359-6.528-4.11.505-7.034 4.248-6.528 8.359 9.202 74.827 73.076 131.253 148.578 131.253 75.536 0 139.414-56.455 148.586-131.32.505-4.11-2.419-7.851-6.53-8.355z"/><path d="m361.899 171.281c-1.906-5.866-7.12-9.8-13.285-10.021l-58.801-2.109-20.177-55.272c-2.115-5.794-7.467-9.538-13.635-9.538s-11.52 3.744-13.635 9.538l-20.177 55.272-58.801 2.109c-6.164.221-11.379 4.155-13.285 10.021s0 12.114 4.857 15.916l46.331 36.269-16.164 56.576c-1.695 5.931.435 12.106 5.426 15.732 4.985 3.622 11.516 3.746 16.637.298l48.81-32.857 48.811 32.855c5.115 3.444 11.646 3.328 16.637-.298 4.991-3.625 7.12-9.8 5.425-15.732l-16.164-56.575 46.331-36.269c4.858-3.802 6.765-10.049 4.859-15.915zm-60.69 40.574c-4.675 3.66-6.642 9.713-5.01 15.419l15.89 55.615-47.982-32.297c-2.463-1.658-5.285-2.487-8.107-2.487s-5.644.829-8.106 2.486l-47.983 32.297 15.89-55.614c1.631-5.708-.335-11.759-5.009-15.419l-45.546-35.654 57.805-2.074c5.932-.213 11.08-3.954 13.115-9.529l19.835-54.334 19.835 54.334c2.036 5.575 7.183 9.316 13.115 9.528l57.803 2.074z"/>
</symbol>
<symbol id="repeat" viewBox="0 0 489.935 489.935" fill="currentColor">
	<path d="M278.235,33.267c-116.7,0-211.6,95-211.6,211.7v0.7l-41.9-63.1c-4.1-6.2-12.5-7.9-18.7-3.8c-6.2,4.1-7.9,12.5-3.8,18.7   l60.8,91.5c2.2,3.3,5.7,5.4,9.6,5.9c0.6,0.1,1.1,0.1,1.7,0.1c3.3,0,6.5-1.2,9-3.5l84.5-76.1c5.5-5,6-13.5,1-19.1   c-5-5.5-13.5-6-19.1-1l-56.1,50.7v-1c0-101.9,82.8-184.7,184.6-184.7s184.7,82.8,184.7,184.7s-82.8,184.7-184.6,184.7   c-49.3,0-95.7-19.2-130.5-54.1c-5.3-5.3-13.8-5.3-19.1,0c-5.3,5.3-5.3,13.8,0,19.1c40,40,93.1,62,149.6,62   c116.6,0,211.6-94.9,211.6-211.7S394.935,33.267,278.235,33.267z"/>
</symbol>
<symbol id="gamepad" viewBox="0 0 321.145 321.145" fill="currentColor">
	<path d="M320.973,200.981c-0.8-18.4-4-38.8-8.8-58c-4.8-18.4-10.8-35.6-18-48.8c-28-49.2-58.4-41.6-94.8-32    c-11.6,2.8-24,6-36.8,7.2h-4c-12.8-1.2-25.2-4.4-36.8-7.2c-36.4-9.2-66.8-17.2-94.8,32.4c-7.2,13.2-13.6,30.4-18,48.8    c-4.8,19.2-8,39.6-8.8,58c-0.8,20.4,1.2,35.2,5.6,45.6c4.4,9.6,10.8,15.6,19.2,18c7.6,2,16.4,1.2,25.6-2.8    c15.6-6.4,33.6-20,51.2-36.4c12.4-12,35.6-18,58.8-18s46.4,6,58.8,18c17.6,16.4,35.6,30,51.2,36.4c9.2,3.6,18,4.8,25.6,2.8    c8-2.4,14.8-8,19.2-18.4C319.773,236.581,321.773,221.781,320.973,200.981z M301.773,240.981c-2.4,5.6-5.6,8.8-9.6,10    c-4.4,1.2-10,0.4-16.4-2c-14-5.6-30.4-18-46.4-33.2c-15.2-15.2-42-22.8-68.8-22.8s-53.6,7.6-69.2,22c-16.4,15.2-32.8,28-46.4,33.2    c-6.4,2.4-12,3.6-16.4,2c-4-1.2-7.2-4.4-9.6-10c-3.2-7.6-4.8-20-4-38.4c0.8-17.2,3.6-36.8,8.4-55.2c4.4-17.2,10-33.2,16.8-45.2    c22-39.6,47.6-33.2,78-25.2c12.4,3.2,25.2,6.4,39.2,7.6c0.4,0,0.4,0,0.8,0h4.4c0.4,0,0.4,0,0.8,0c14.4-1.2,27.2-4.4,39.6-7.6    c30.4-7.6,56-14.4,78,25.2c6.8,12,12.4,27.6,16.8,45.2c4.4,18.4,7.6,37.6,8.4,55.2    C306.973,220.181,305.373,232.581,301.773,240.981z"/>
	<path d="M123.773,122.981c-4-3.6-8.8-6.4-14.4-6.8c-0.4-5.2-2.8-10.4-6.4-14l-0.4-0.4c-4.4-4.4-10-6.8-16.4-6.8    c-6.4,0-12.4,2.8-16.4,6.8c-3.6,3.6-6.4,8.8-6.8,14.4c-5.6,0.4-10.4,2.8-14.4,6.4l-0.4,0.4c-4.4,4.4-6.8,10-6.8,16.4    c0,6.4,2.8,12.4,6.8,16.4c4,4,8.8,6.4,14.8,6.8c0.4,5.6,2.8,10.8,6.8,14.4c4.4,4.4,10,6.8,16.4,6.8c6.4,0,12.4-2.8,16.4-6.8    c3.6-4,6.4-8.8,6.8-14.4c5.6-0.4,10.8-2.8,14.4-6.8c4.4-4.4,6.8-10,6.8-16.4C130.573,132.981,127.773,126.981,123.773,122.981z     M113.773,145.381c-1.6,1.6-3.6,2.4-6,2.4h-5.6c-4,0-7.6,3.2-7.6,7.6v5.2c0,2.4-0.8,4.4-2.4,6c-1.6,1.6-3.6,2.4-6,2.4    c-2.4,0-4.4-0.8-6-2.4c-1.6-1.6-2.4-3.6-2.4-6v-5.6c0-4-3.2-7.6-7.6-7.6h-5.6c-2.4,0-4.4-0.8-6-2.4c-1.2-1.2-2.4-3.2-2.4-5.6    c0-2.4,0.8-4.4,2.4-6c0,0,0,0,0.4-0.4c1.6-1.2,3.6-2,5.6-2h5.6c4,0,7.6-3.2,7.6-7.6v-5.6c0-2.4,0.8-4.4,2.4-6    c1.6-1.6,3.6-2.4,6-2.4c2.4,0,4.4,0.8,6,2.4c0,0,0,0,0.4,0.4c1.2,1.6,2,3.6,2,5.6v5.6c0,4,3.2,7.6,7.6,7.6h5.6    c2.4,0,4.4,0.8,6,2.4c1.6,1.6,2.4,3.6,2.4,6C116.173,141.781,115.373,143.781,113.773,145.381z"/>
	<circle cx="230.173" cy="110.981" r="14"/>
	<circle cx="230.173" cy="167.781" r="14"/>
	<circle cx="201.773" cy="139.381" r="14"/>
	<circle cx="258.573" cy="139.381" r="14"/>
</symbol>
</svg>
